HIERARCHY
ROOT joint_Root
{
	OFFSET 0.0 0.0 0.0
	CHANNELS 6 Xposition Yposition Zposition Zrotation Xrotation Yrotation 
	JOINT Hips
	{
		OFFSET 4.5925 91.4895 -427.239
		CHANNELS 6 Xposition Yposition Zposition Zrotation Xrotation Yrotation 
		JOINT Spine
		{
			OFFSET 15.7357 0.0 0.0
			CHANNELS 6 Xposition Yposition Zposition Zrotation Xrotation Yrotation 
			JOINT Chest
			{
				OFFSET 8.98455 -0.406207 0.0
				CHANNELS 6 Xposition Yposition Zposition Zrotation Xrotation Yrotation 
				JOINT Neck
				{
					OFFSET 16.3773 0.0 0.0
					CHANNELS 6 Xposition Yposition Zposition Zrotation Xrotation Yrotation 
					JOINT Head
					{
						OFFSET 6.45672 0.0 0.0
						CHANNELS 6 Xposition Yposition Zposition Zrotation Xrotation Yrotation 
						End Site
						{
							OFFSET 0.0 0.0 0.0
						}
					}
				}
				JOINT Shoulder_L
				{
					OFFSET 12.9942 -0.242716 4.98039
					CHANNELS 6 Xposition Yposition Zposition Zrotation Xrotation Yrotation 
					JOINT UpperArm_L
					{
						OFFSET 5.34809 0.0 0.0
						CHANNELS 6 Xposition Yposition Zposition Zrotation Xrotation Yrotation 
						JOINT LowerArm_L
						{
							OFFSET 24.3286 1.87007e-05 0.0
							CHANNELS 6 Xposition Yposition Zposition Zrotation Xrotation Yrotation 
							JOINT Hand_L
							{
								OFFSET 22.2916 0.0 0.0
								CHANNELS 6 Xposition Yposition Zposition Zrotation Xrotation Yrotation 
								End Site
								{
									OFFSET 0.0 0.0 0.0
								}
							}
						}
					}
				}
				JOINT Shoulder_R
				{
					OFFSET 12.9945 -0.242716 -4.98039
					CHANNELS 6 Xposition Yposition Zposition Zrotation Xrotation Yrotation 
					JOINT UpperArm_R
					{
						OFFSET -5.34813 0.0 0.0
						CHANNELS 6 Xposition Yposition Zposition Zrotation Xrotation Yrotation 
						JOINT LowerArm_R
						{
							OFFSET -24.3289 0.000322201 0.0
							CHANNELS 6 Xposition Yposition Zposition Zrotation Xrotation Yrotation 
							JOINT Hand_R
							{
								OFFSET -22.2915 -0.000108084 0.0
								CHANNELS 6 Xposition Yposition Zposition Zrotation Xrotation Yrotation 
								End Site
								{
									OFFSET 0.0 0.0 0.0
								}
							}
						}
					}
				}
			}
		}
		JOINT UpperLeg_L
		{
			OFFSET -2.19248 -6.46944 0.0
			CHANNELS 6 Xposition Yposition Zposition Zrotation Xrotation Yrotation 
			JOINT LowerLeg_L
			{
				OFFSET 39.0811 0.0 -1.23785e-05
				CHANNELS 6 Xposition Yposition Zposition Zrotation Xrotation Yrotation 
				JOINT Foot_L
				{
					OFFSET 40.9854 0.0 -1.26872e-05
					CHANNELS 6 Xposition Yposition Zposition Zrotation Xrotation Yrotation 
					JOINT Toes_L
					{
						OFFSET 11.7543 0.0 0.0
						CHANNELS 6 Xposition Yposition Zposition Zrotation Xrotation Yrotation 
						End Site
						{
							OFFSET 0.0 0.0 0.0
						}
					}
				}
			}
		}
		JOINT UpperLeg_R
		{
			OFFSET -2.19251 6.46944 0.0
			CHANNELS 6 Xposition Yposition Zposition Zrotation Xrotation Yrotation 
			JOINT LowerLeg_R
			{
				OFFSET -39.0811 -0.00228153 -0.0401928
				CHANNELS 6 Xposition Yposition Zposition Zrotation Xrotation Yrotation 
				JOINT Foot_R
				{
					OFFSET -40.9854 0.0 0.0
					CHANNELS 6 Xposition Yposition Zposition Zrotation Xrotation Yrotation 
					JOINT Toes_R
					{
						OFFSET -11.7543 0.0 0.0
						CHANNELS 6 Xposition Yposition Zposition Zrotation Xrotation Yrotation 
						End Site
						{
							OFFSET 0.0 0.0 0.0
						}
					}
				}
			}
		}
	}
}
MOTION
Frames:	7
Frame Time:	0.0333333
0.000000 0.000000 0.000000 0.000000 0.000000 -0.000000 -1.631900 90.230200 3.718320 89.004100 -3.191950 10.936000 15.735700 0.000005 -0.000001 83.463300 82.647600 -83.260900 8.984550 -0.406207 -0.000000 6.848360 -1.670080 0.504330 16.377300 -0.000001 -0.000001 5.046500 -2.011440 2.717140 6.456720 -0.000001 -0.000000 -10.318100 -1.109040 5.088050 12.994200 -0.242716 4.980390 -91.896800 6.558240 -73.829900 5.348090 -0.000007 -0.000001 -60.337000 44.574000 -17.605800 24.328600 0.000019 0.000005 8.824330 22.265000 -22.280400 22.291600 -0.000001 0.000005 10.675800 5.263490 1.073440 12.994500 -0.242716 -4.980390 88.189900 12.688400 -81.812400 -5.348130 -0.000001 -0.000004 -61.279400 30.873500 -8.296630 -24.328900 0.000322 -0.000009 1.549520 4.720370 -18.208200 -22.291500 -0.000108 -0.000004 12.677800 5.401490 -2.986130 -2.192480 -6.469440 -0.000000 -172.847000 -12.275200 4.059560 39.081100 -0.000007 -0.000012 -0.265848 0.439036 31.196600 40.985400 -0.000006 -0.000013 -0.604652 4.972830 -73.757000 11.754300 -0.000000 0.000003 -0.000200 -0.001850 -16.647300 -2.192510 6.469440 -0.000001 173.448000 20.793100 -174.879000 -39.081100 -0.002282 -0.040193 -0.257950 0.445205 30.405200 -40.985400 0.000008 0.000006 2.877660 11.939300 -73.678700 -11.754300 -0.000006 -0.000006 -0.001996 -0.028663 -17.738600
0.000000 0.000000 0.000000 0.000000 0.000000 -0.000000 -1.523590 90.228500 3.673470 88.981500 -3.301330 10.993800 15.735700 0.000005 -0.000001 83.690800 82.589100 -83.576300 8.984550 -0.406207 -0.000000 6.969680 -1.624070 0.327742 16.377300 -0.000001 -0.000001 5.281200 -1.926610 2.560660 6.456720 -0.000001 -0.000000 -9.739530 -0.893524 4.546460 12.994200 -0.242716 4.980390 -91.895600 6.517170 -73.743200 5.348090 -0.000007 -0.000001 -60.437100 43.853400 -17.141500 24.328600 0.000019 0.000005 8.521120 22.670700 -21.242400 22.291600 -0.000001 0.000005 10.651200 5.261040 1.139230 12.994500 -0.242716 -4.980390 88.158500 12.640800 -81.642100 -5.348130 -0.000001 -0.000004 -60.698200 28.957500 -8.186320 -24.328900 0.000322 -0.000009 1.437600 4.301890 -18.511200 -22.291500 -0.000108 -0.000004 12.548900 5.405580 -3.119550 -2.192480 -6.469440 -0.000000 -172.892000 -12.329800 4.071890 39.081100 -0.000007 -0.000012 -0.263183 0.433562 31.259300 40.985400 -0.000006 -0.000013 -0.542234 4.888970 -73.781600 11.754300 -0.000000 0.000003 -0.000215 -0.001965 -16.651500 -2.192510 6.469440 -0.000001 173.407000 20.700300 -174.899000 -39.081100 -0.002282 -0.040193 -0.257899 0.444355 30.448200 -40.985400 0.000008 0.000006 2.819720 11.976000 -73.628000 -11.754300 -0.000006 -0.000006 -0.002015 -0.028898 -17.748200
0.000000 0.000000 0.000000 0.000000 0.000000 -0.000000 -1.412610 90.229400 3.626290 88.978200 -3.402960 11.052400 15.735700 0.000005 -0.000001 83.929700 82.556200 -83.897700 8.984550 -0.406207 -0.000000 7.040600 -1.569110 0.160540 16.377300 -0.000001 -0.000001 5.594520 -1.807000 2.345660 6.456720 -0.000001 -0.000000 -9.089370 -0.726871 3.894040 12.994200 -0.242716 4.980390 -91.885000 6.447560 -73.665400 5.348090 -0.000007 -0.000001 -60.600000 43.159600 -16.590000 24.328600 0.000019 0.000005 8.306810 23.202100 -20.334700 22.291600 -0.000001 0.000005 10.629800 5.256180 1.268720 12.994500 -0.242716 -4.980390 88.122300 12.523000 -81.402100 -5.348130 -0.000001 -0.000004 -59.894200 26.672200 -8.143170 -24.328900 0.000322 -0.000009 1.342290 3.866970 -19.173300 -22.291500 -0.000108 -0.000004 12.320800 5.404400 -3.080830 -2.192480 -6.469440 -0.000000 -172.977000 -12.335200 4.088390 39.081100 -0.000007 -0.000012 -0.262537 0.431822 31.299100 40.985400 -0.000006 -0.000013 -0.491424 4.754830 -73.793000 11.754300 -0.000000 0.000003 -0.000215 -0.001969 -16.651700 -2.192510 6.469440 -0.000001 173.343000 20.573800 -174.914000 -39.081100 -0.002282 -0.040193 -0.259803 0.446997 30.481700 -40.985400 0.000008 0.000006 2.757690 12.029900 -73.576300 -11.754300 -0.000006 -0.000006 -0.002133 -0.030375 -17.808200
0.000000 0.000000 0.000000 0.000000 0.000000 -0.000000 -1.275520 90.238500 3.561300 88.947800 -3.577060 11.123800 15.735700 0.000005 -0.000001 84.250300 82.546200 -84.277500 8.984550 -0.406207 -0.000000 7.068100 -1.488120 0.037631 16.377300 -0.000001 -0.000001 5.968920 -1.685530 2.157460 6.456720 -0.000001 -0.000000 -8.385250 -0.511909 3.032870 12.994200 -0.242716 4.980390 -91.880400 6.362280 -73.497400 5.348090 -0.000007 -0.000001 -60.866600 42.467000 -15.910600 24.328600 0.000019 0.000005 8.047620 23.401800 -19.594800 22.291600 -0.000001 0.000005 10.672600 5.251760 1.386120 12.994500 -0.242716 -4.980390 88.084400 12.365700 -81.123200 -5.348130 -0.000001 -0.000004 -58.655900 24.240100 -8.208060 -24.328900 0.000322 -0.000009 1.445140 3.908100 -20.324200 -22.291500 -0.000108 -0.000004 12.265000 5.407530 -3.183610 -2.192480 -6.469440 -0.000000 -173.026000 -12.441000 4.130400 39.081100 -0.000007 -0.000012 -0.257855 0.423737 31.322100 40.985400 -0.000006 -0.000013 -0.405853 4.667940 -73.792700 11.754300 -0.000000 0.000003 -0.000217 -0.001984 -16.652200 -2.192510 6.469440 -0.000001 173.297000 20.465300 -174.923000 -39.081100 -0.002282 -0.040193 -0.256828 0.441950 30.481300 -40.985400 0.000008 0.000006 2.691410 12.108800 -73.478000 -11.754300 -0.000006 -0.000006 -0.002014 -0.028888 -17.747800
0.000000 0.000000 0.000000 0.000000 0.000000 -0.000000 -1.120090 90.255300 3.479150 88.961100 -3.744220 11.080500 15.735700 0.000005 -0.000001 84.505400 82.591000 -84.601300 8.984550 -0.406207 -0.000000 6.984240 -1.413350 -0.105363 16.377300 -0.000001 -0.000001 6.395310 -1.551220 1.927520 6.456720 -0.000001 -0.000000 -7.611970 -0.261433 2.173160 12.994200 -0.242716 4.980390 -91.873600 6.279920 -73.350800 5.348090 -0.000007 -0.000001 -61.228200 41.609400 -15.096000 24.328600 0.000019 0.000005 7.925930 23.611500 -19.167000 22.291600 -0.000001 0.000005 10.554400 5.244990 1.564670 12.994500 -0.242716 -4.980390 88.046600 12.240100 -80.860900 -5.348130 -0.000001 -0.000004 -56.783600 21.964400 -8.412260 -24.328900 0.000322 -0.000009 1.397590 3.470810 -21.965700 -22.291500 -0.000108 -0.000004 12.122500 5.411670 -3.320510 -2.192480 -6.469440 -0.000000 -173.170000 -12.539900 4.048610 39.081100 -0.000007 -0.000012 -0.254609 0.418682 31.305000 40.985400 -0.000006 -0.000013 -0.322895 4.532820 -73.752700 11.754300 -0.000000 0.000003 -0.000204 -0.001883 -16.648600 -2.192510 6.469440 -0.000001 173.249000 20.321200 -175.082000 -39.081100 -0.002282 -0.040193 -0.256691 0.441685 30.483100 -40.985400 0.000008 0.000006 2.604090 12.174700 -73.357800 -11.754300 -0.000006 -0.000006 -0.002100 -0.029955 -17.791200
0.000000 0.000000 0.000000 0.000000 0.000000 -0.000000 -0.952240 90.271400 3.380820 88.947600 -3.892990 11.041900 15.735700 0.000005 -0.000001 84.649200 82.663500 -84.799400 8.984550 -0.406207 -0.000000 6.842740 -1.362560 -0.218611 16.377300 -0.000001 -0.000001 6.849540 -1.389480 1.646510 6.456720 -0.000001 -0.000000 -6.661740 -0.042712 1.313810 12.994200 -0.242716 4.980390 -91.850200 6.142620 -73.201600 5.348090 -0.000007 -0.000001 -61.606800 40.888700 -14.289200 24.328600 0.000019 0.000005 7.812210 23.679300 -18.861100 22.291600 -0.000001 0.000005 10.420600 5.244230 1.584870 12.994500 -0.242716 -4.980390 88.011500 12.125300 -80.614200 -5.348130 -0.000001 -0.000004 -54.444400 19.572500 -8.772180 -24.328900 0.000322 -0.000009 1.294170 2.941030 -23.783100 -22.291500 -0.000108 -0.000004 12.229100 5.420360 -3.610430 -2.192480 -6.469440 -0.000000 -173.292000 -12.641600 3.944470 39.081100 -0.000007 -0.000012 -0.251465 0.413286 31.319000 40.985400 -0.000006 -0.000013 -0.224880 4.411760 -73.718000 11.754300 -0.000000 0.000003 -0.000215 -0.001968 -16.651600 -2.192510 6.469440 -0.000001 173.225000 20.191400 -175.233000 -39.081100 -0.002282 -0.040193 -0.256884 0.442154 30.475000 -40.985400 0.000008 0.000006 2.511560 12.225600 -73.226100 -11.754300 -0.000006 -0.000006 -0.002203 -0.031233 -17.843100
0.000000 0.000000 0.000000 0.000000 0.000000 -0.000000 -0.758490 90.287900 3.267570 88.951100 -4.020000 11.018600 15.735700 0.000005 -0.000001 84.682900 82.749300 -84.864700 8.984550 -0.406207 -0.000000 6.672280 -1.337810 -0.285188 16.377300 -0.000001 -0.000001 7.379780 -1.192550 1.401990 6.456720 -0.000001 -0.000000 -5.624350 0.258121 0.169246 12.994200 -0.242716 4.980390 -91.837600 6.045860 -73.058900 5.348090 -0.000007 -0.000001 -61.908300 40.425500 -13.572000 24.328600 0.000019 0.000005 7.672770 23.551900 -18.631800 22.291600 -0.000001 0.000005 10.470400 5.245160 1.560370 12.994500 -0.242716 -4.980390 88.010200 11.873000 -80.415100 -5.348130 -0.000001 -0.000004 -51.988900 16.512700 -9.311320 -24.328900 0.000322 -0.000009 1.226940 2.559300 -25.644700 -22.291500 -0.000108 -0.000004 12.414700 5.418900 -3.561800 -2.192480 -6.469440 -0.000000 -173.472000 -12.701200 3.842320 39.081100 -0.000007 -0.000012 -0.245535 0.403362 31.330300 40.985400 -0.000006 -0.000013 -0.117474 4.234700 -73.678400 11.754300 -0.000000 0.000003 -0.000206 -0.001900 -16.649200 -2.192510 6.469440 -0.000001 173.172000 20.041100 -175.402000 -39.081100 -0.002282 -0.040193 -0.256101 0.440596 30.487900 -40.985400 0.000008 0.000006 2.392220 12.251400 -73.078600 -11.754300 -0.000006 -0.000006 -0.002156 -0.030652 -17.819500
